<?xml version="1.0" standalone="no"?>
<!DOCTYPE svg PUBLIC "-//W3C//DTD SVG 20010904//EN"
 "http://www.w3.org/TR/2001/REC-SVG-20010904/DTD/svg10.dtd">
<svg version="1.0" xmlns="http://www.w3.org/2000/svg"
 width="3500.000000pt" height="3500.000000pt" viewBox="0 0 3500.000000 3500.000000"
 preserveAspectRatio="xMidYMid meet">

<g transform="translate(0.000000,3500.000000) scale(0.100000,-0.100000)"
fill="#000000" stroke="none">
<path d="M16100 26395 l0 -135 178 0 c397 -1 611 -38 865 -151 170 -76 350
-203 498 -352 260 -262 397 -515 477 -887 15 -69 16 -714 19 -7605 3 -6792 2
-7541 -12 -7640 -53 -372 -211 -686 -488 -972 l-89 -92 33 -21 c64 -40 374
-188 489 -233 275 -107 589 -191 845 -226 150 -21 390 -41 482 -41 l92 0 3
-83 3 -82 1218 -3 1217 -2 0 135 0 135 -177 0 c-328 1 -527 27 -721 94 -252
88 -439 205 -641 400 -245 238 -386 472 -462 769 -52 202 -49 -299 -49 7781 0
8232 -5 7599 56 7825 127 470 480 883 936 1095 246 114 477 155 881 156 l177
0 0 135 0 135 -2915 0 -2915 0 0 -135z"/>
<path d="M26114 26517 c-2 -7 -3 -62 -2 -123 l3 -109 240 -6 c277 -7 336 -18
495 -96 129 -64 236 -170 298 -295 85 -171 106 -399 50 -550 -30 -79 -90 -183
-158 -272 -27 -35 -1457 -1831 -3179 -3990 -1892 -2373 -3128 -3932 -3124
-3939 14 -23 6387 -7713 6462 -7797 238 -268 461 -463 751 -657 627 -418 1426
-677 2365 -767 321 -31 484 -37 1223 -43 l752 -6 0 136 0 135 -62 6 c-35 3
-110 8 -168 11 -215 12 -480 60 -728 131 -431 123 -864 349 -1227 642 -267
215 -87 8 -3943 4542 -1995 2345 -3637 4276 -3649 4291 l-23 27 3111 3603
c1710 1982 3171 3668 3245 3746 132 139 266 262 409 374 636 500 1439 768
2303 769 l172 0 0 125 0 125 -2805 0 c-2309 0 -2807 -2 -2811 -13z"/>
<path d="M16100 7980 l0 -110 392 0 c216 0 388 4 383 8 -6 5 -50 17 -100 27
-113 22 -451 114 -569 155 -50 16 -93 30 -98 30 -4 0 -8 -49 -8 -110z"/>
</g>
</svg>
